<?xml version="1.0" encoding="UTF-8"?>
<svg id="Layer_1" xmlns="http://www.w3.org/2000/svg" version="1.1" viewBox="0 0 4000 4000">
  <!-- Generator: Adobe Illustrator 30.0.0, SVG Export Plug-In . SVG Version: 2.1.1 Build 123)  -->
  <defs>
    <style>
      .st0 {
        fill: #719a4b;
      }

      .st1 {
        fill: #a3b340;
      }

      .st2 {
        fill: #32588c;
      }

      .st3 {
        fill: #c3d4e9;
      }

      .st4 {
        fill: #679338;
      }

      .st5 {
        fill: #40659b;
      }

      .st6 {
        fill: #e0892c;
      }

      .st7 {
        fill: #c8b865;
      }

      .st8 {
        fill: #fff;
      }

      .st9 {
        fill: #b1c9bf;
      }

      .st10 {
        fill: #87965d;
      }

      .st11 {
        fill: #6d9eb4;
      }

      .st12 {
        fill: #4f397e;
      }

      .st13 {
        fill: #d7c72c;
      }

      .st14 {
        fill: #c67155;
      }

      .st15 {
        fill: #e9f6fb;
      }

      .st16 {
        fill: #db7422;
      }

      .st17 {
        fill: #c0bac2;
      }

      .st18 {
        fill: #d3c7a0;
      }

      .st19 {
        fill: #c0bb33;
      }

      .st20 {
        fill: #e3b84a;
      }

      .st21 {
        fill: #dba525;
      }

      .st22 {
        fill: #2273b6;
      }

      .st23 {
        fill: #854c8c;
      }

      .st24 {
        fill: #eac839;
      }

      .st25 {
        fill: #5d7fad;
      }

      .st26 {
        fill: #f9d1bd;
      }

      .st27 {
        fill: #c0cdbc;
      }

      .st28 {
        fill: #007b8b;
      }

      .st29 {
        fill: #4a8445;
      }

      .st30 {
        fill: #e6b64d;
      }

      .st31 {
        fill: #43467c;
      }
    </style>
  </defs>
  <path class="st8" d="M2000.59,2826.83s59.54,44.24,103.12,44.24-34.2-211.65-40.37-236.95c-6.18-25.3-57.8-534.15-57.8-534.15l40.83-204.22,59.17-93.17,206.01,77.26-78.35-176.45-288.79-169.82-109.05-151.78-71.37-282.53-32.69,90.17-20.66,550.09,171.64,864.05,118.3,223.26Z"/>
  <path class="st8" d="M1753.65,488.27c-99.53,0-180.7,78.53-184.96,177.01l8.03,21.21s15.03,133.75,129.24,150.28c37.74,5.46,54.03,13.28,58.27,21.49,97.33-5.49,174.57-86.14,174.57-184.84s-82.89-185.15-185.15-185.15Z"/>
  <g>
    <path class="st27" d="M1782.11,983.05s-62.12-20.04-87.16,102.19c-25.05,122.23-27.05,308.65-38.07,370.73-11.02,62.08,38.07,770.4,192.86,1159.63,19.54,31.56,6.01,101.07,72.13,124.17,22.54,54.66,59.18,89.82,93.46,88.77-10.8-11.57-49.88-100.23-45.37-107.75,4.51-7.51,32.91-27.05,8.19-85.66-24.72-58.61-59.28-282.53-60.79-351.66-12.02-69.13-7.51-52.6-12.02-135.25-4.51-82.65-28.05-45.08-28.05-45.08,0,0-21.04-8.83-35.07,32.66-14.03,41.48-21.04,47.49-31.06,35.47-10.02-12.02-43.31-238.82-49.71-375.39-8.4-120.54-16.42-303.88-16.42-426.11,0-81.15,17.81-93.95,16.42-112.1-1.39-18.15.61-89.28.61-89.28l20.04-185.35Z"/>
    <path class="st29" d="M1761.46,1953.2c-33.45-291.89-34.95-634.91-34.95-634.91l15.81-288.16s-2.26-16.25-6.43-33.15c-15.35,13.88-31.04,39.96-40.94,88.26-25.05,122.23-27.05,308.65-38.07,370.73-11.02,62.08,38.07,770.4,192.86,1159.63,3.25,5.25,5.58,11.56,7.52,18.53l25.03-30.55s-87.39-358.48-120.84-650.37Z"/>
    <path class="st10" d="M1783.11,2228.38c-10.83,6.9-28.3,4.16-40.66.82,27.94,139.79,63.36,275.95,107.28,386.41,3.25,5.25,5.58,11.56,7.52,18.53l25.03-30.55s-38.25-156.93-73.83-347.67c-12.68-18.94-21.91-29.73-25.35-27.53Z"/>
    <path class="st1" d="M1661.16,1422.1c4.46,4.58,9.14,17.8,11.75,50.23,6.01,74.78,29.05,117.86,48.09,108.84,3.54-1.68,7.01-23.72,10.31-58.47-4.43-120.32-4.8-204.4-4.8-204.4l15.81-288.16s-2.26-16.25-6.43-33.15c-15.35,13.88-31.04,39.96-40.94,88.26-21.45,104.69-26,256.45-33.79,336.86Z"/>
    <path class="st4" d="M1726,1228.51c-15.41-12.65-35.17-9.29-49.88-3.69-6.75,74.39-10.27,148.8-14.97,197.28,4.46,4.58,9.14,17.8,11.75,50.23,6.01,74.78,29.05,117.86,48.09,108.84,3.54-1.68,7.01-23.72,10.31-58.47-4.43-120.32-4.8-204.4-4.8-204.4l4.56-83.14c-1.62-2.96-3.31-5.2-5.06-6.64Z"/>
    <path class="st21" d="M1704.76,1139.24s6.56-10.27,15.41-3.27c8.85,7-1.05,13.77-1.05,13.77l-14.36-10.5Z"/>
    <path class="st6" d="M1928.56,2653.17l-78.82-372.7-10.99-134.73c-11.78,32.42-18.43,36.51-27.58,25.53-10.02-12.02-43.31-238.82-49.71-375.39-8.4-120.54-16.42-303.88-16.42-426.11,0-81.15,17.81-93.95,16.42-112.1-1.39-18.15.61-89.28.61-89.28l20.04-185.35s-44.06-14.21-72.93,54.33c1.55,9,3.76,17.73,5.8,25.82,6.26,24.73,5.01,72.13-4.01,72.13s-9.02,11.02-8.02,44.08c1,33.06-1,128.24,0,382.72,3.01,267.5,45.08,465.87,53.1,569.06,8.01,103.19,108.2,494.93,108.2,494.93l64.29,27.05Z"/>
    <path class="st9" d="M1888.06,2135.78c-1-10.54-4.2-23.08-8.35-35.81-1.5,1.71-2.42,3.17-2.42,3.17,0,0-21.04-8.83-35.07,32.66-14.03,41.48-21.04,47.49-31.06,35.47-1.17-1.4-2.66-5.76-4.38-12.51,0,0,0,.01,0,.02,4.39,90.2,47.7,248.93,47.7,248.93,0,0,47.84,231.18,56.11,234.94,8.27,3.76,47.2-9.77,47.2-9.77,0,0-65.99-457.61-69.74-497.1Z"/>
    <g>
      <path class="st7" d="M1978.15,2635.14c-2.45-5.81-5-13.27-7.6-22.01-37.89-14.28-57.45-21.22-65.21-4.29-8.27,18.03-18.79,9.77-36.36-.75-17.57-10.52-14.24,18.12-14.23,18.13,12.61,34.49,7.66,92.79,67.13,113.56,28.55-17.84,48.09-18.98,48.09-18.98,4.51-7.51,32.91-27.05,8.19-85.66Z"/>
      <path class="st31" d="M1921.12,2541.21c34.56,126.99,48.84,179.59,48.84,179.59,4.51-7.51,32.91-27.05,8.19-85.66-24.72-58.61-59.28-282.53-60.79-351.66-12.02-69.13-7.51-52.6-12.02-135.25-4.51-82.65-28.05-45.08-28.05-45.08,0,0-5.01,33.06-8.01,99.94-3.01,66.88,17.28,211.14,51.85,338.13Z"/>
    </g>
    <path class="st21" d="M1745.32,1411.85c-.18-14.65-.28-28.73-.28-42.08,0-81.15,17.81-93.95,16.42-112.1-1.39-18.15.61-89.28.61-89.28l20.04-185.35s-44.06-14.21-72.93,54.33c1.55,9,3.76,17.73,5.8,25.82,6.26,24.73,5.01,72.13-4.01,72.13s-9.02,11.02-8.02,44.08c.77,25.53-.24,88.11-.29,232.43h42.64Z"/>
    <path class="st13" d="M1761.46,1257.67c-1.39-18.15.61-89.28.61-89.28l20.04-185.35s-44.06-14.21-72.93,54.33c1.55,9,3.76,17.73,5.8,25.82,6.26,24.73,5.01,72.13-4.01,72.13-1.8,0,1.15-.97,0,0l2.98-2.03s33.66,7.82,28.36,63.53c-5.29,55.71,7.99,108.06,7.99,108.06,5.13-26.27,12.03-35.66,11.15-47.22Z"/>
    <g>
      <g>
        <path class="st17" d="M1622.81,552.99s24.04-15.4,27.8-18.79,6.39-16.53,12.4-11.27,6.76,20.29-9.77,30.06c-16.53,9.77-49.59,15.78-30.43,0Z"/>
        <path class="st28" d="M1674.38,510.14c1.9-.67,4-.36,5.77.59,4.55,2.42,16.51,8.41,17.42,5.07,1.13-4.13-2.63-13.97,18.79-17.32s40.58,1.91,36.82,11.31c-3.76,9.39-38.32,25.17-48.09,25.17s-15.4.38-18.79-7.51-6.76-2.63-12.4-8.27c-4.23-4.23-2.96-7.82.48-9.03Z"/>
        <path class="st17" d="M1825.52,503.43c-3.01-1.17-6.08-2.31-9.23-3.41-6.01-3.01-6.76,2.25-6.76,2.25,0,0-21.79-5.61-27.8-3.18-6.01,2.43,14.65,19.34,15.03,21.59s-1.13,5.64-14.65,2.63c-.58-.13-1.11-.21-1.66-.29,2,2.52,6.91,7.8,12.93,7.8,7.89,0,32.69-9.68,24.42-14.61-8.26-4.92-7.83-12.38,7.72-12.79Z"/>
        <path class="st28" d="M1663.01,522.94c-6.01-5.26-8.64,7.89-12.4,11.27,0,0,13.57-7.3,13.74,8h0c4.35-7.79,2.7-15.74-1.34-19.27Z"/>
        <path class="st15" d="M1844.29,581.78c.44-3.43,5.35-3.77,6.43-.49,1.51,4.59,4.58,13.13,8.04,17.91,4.88,6.76-8.27,3.38-12.02-5.64-1.88-4.51-2.82-8.83-2.44-11.79Z"/>
        <g>
          <path class="st28" d="M1569.56,668.35c-.85,13.71-.85,42.94,12.68,57.22.5,22.54,12.52,48.59,38.07,67.13,18.53,23.54,108.7,105.2,232.94,53.1,33.06-14.53,115.22-80.15,104.7-198.87,0,0-2.25,3.38-6.39-3.38,0,0,7.14.75,2.63-12.77-4.51-13.53-30.43-93.17-137.88-130.74-6.01-3.01-6.76,2.25-6.76,2.25,0,0-21.79-5.61-27.8-3.18s14.65,19.34,15.03,21.59-1.13,5.64-14.65,2.63c-13.53-3.01-17.28,6.01-25.92,13.15-8.64,7.14-10.52,12.4-.38,17.28s12.77,6.39,14.65-2.25c1.88-8.64,10.14-7.51,12.77-4.88s-6.39,16.91-12.4,17.28-4.88-4.51-14.65,0-19.91-4.13-25.17-10.9-4.88,4.88-5.26,8.27-6.76-2.63-11.65,1.88,16.91,13.53,10.14,26.67c-6.01,5.64-18.41-4.88-21.79,8.27s9.39,9.39,12.4,11.65,2.63,9.39-1.13,10.52-15.4-1.5-24.04,12.77c-5.26,5.26-27.05,16.4-23.29,47.65,3.76,31.25,32.31,43.27,60.86,42.14,28.55-1.13,22.54,10.9,15.03,18.03-1.5.75,1.88,10.14-7.14,12.02-9.02,1.88-70.63,14.65-107.08-.75-12.77-10.14-14.65-20.66-35.32-30.06-2.86-18.91,1.41-15.57-19.09-54.58-1.02-1.95-3.98-1.33-4.11.87Z"/>
          <path class="st15" d="M1740.03,614.23s18.41-3.76,25.92,14.28,10.14-.38,18.03-2.25,20.29,10.52,34.94,4.13-13.15-7.14-17.66-14.28c-4.51-7.14,2.25-18.79,15.03-18.41,12.77.38,23.67,1.13,5.26-11.27-14.28-11.65-28.55,19.54-28.93,23.29s-3.76,12.02-10.52,2.25-5.26-18.41-12.77-20.29c-7.51-1.88,4.13,18.04-.75,18.41s-3.56-8.64-14.93-13.15c-11.37-4.51-12.87,3.76-17,9.77-4.13,6.01-.75,9.77,3.38,7.51Z"/>
          <path class="st15" d="M1838.46,656.31s21.79,26.67,25.17,32.31-2.63,7.14-10.52,0-12.4-10.9-17.66-24.42-.33-11.99,3.01-7.89Z"/>
          <path class="st15" d="M1873.78,632.27s9.39,14.28,2.63,14.65-12.77-1.13-14.28-7.33,5.64-13.71,11.65-7.33Z"/>
          <path class="st17" d="M1853.24,845.79c33.06-14.53,115.22-80.15,104.7-198.87,0,0-2.25,3.38-6.39-3.38,0,0,4.04.42,4.12-5.13-.02.06-1.17,4.26-8.63-2.05-7.51-6.35-3.01,16.57-1.88,32.35,1.13,15.78-1.5,30.06-14.28,1.13s-13.9-27.43-27.43-27.43-22.17,2.63-9.39,7.89,4.13,19.2-3.01,23.12c-7.14,3.93-11.65,13.32-6.39,26.47,5.26,13.15-.38,18.79-10.14,29.68-9.77,10.9-27.8,28.55-19.16,47.34,8.64,18.79,14.65-14.65,21.04-6.39s-1.08,43.58-11.81,46.59c-10.73,3.01-10.15-7.47-9.23-22.92.93-15.45-5.42-4.88-11.16,3.01s-18.89,31.93-28.66,39.82-29.68,18.41-44.33-7.51c-14.65-25.92-18.03-23.29-11.65-45.84,6.39-22.54-.36-28.92-9.39-32.31-9.03-3.39-7.89-4.88-7.89-10.52-1.5.75,1.88,10.14-7.14,12.02-9.02,1.88-70.63,14.65-107.08-.75-1.5-1.19-2.85-2.39-4.1-3.59,1.45,8.19,2.9,19.36,1.09,23.88-2.59,6.48-4.62,12.97-3.68,21.62,20.72,25.11,109.86,102.93,231.86,51.77Z"/>
          <path class="st11" d="M1798.91,927.23c-2,52.45-12.14,479.35,179.56,611.86,80.15,49.09,217.41,63.12,418.78,306.57,39.07,42.08,62.12,93.17,89.17,129.24,27.05,36.07,16.03,69.13,6.01,78.15-10.02,9.02-16.03,18.03-34.06,7.01-18.03-11.02-24.04-13.02-46.09-20.04-22.04-7.01-72.13-54.1-110.21-103.19-21.04-31.06-37.07-20.04-63.12-32.06-26.05-12.02-83.16-61.11-122.23-47.09-27.05,14.03-91.17,240.45-64.12,479.9,20.04,190.36,66.12,442.83,75.14,484.91,8.01,19.04,27.05,58.11-8.01,59.11-27.05,1-17.03-73.14-25.05-109.2-8.01-36.07-9.02-55.1-45.08-92.17-27.05-32.06-33.06-145.27-38.07-167.31-5.01-22.04-9.02-39.07-3.01-64.12,6.01-25.05,4.01-45.08-21.04-92.17-25.05-47.09-19.04-56.1-14.03-69.13,5.01-13.02-6.01-41.08-14.03-113.21-8.01-72.13,15.03-149.28,33.06-211.4,8.01-49.09,11.02-46.09,19.04-45.08,8.01,1,8.01-1,7.01-23.04-1-22.04-7.01-11.02,20.04-73.14s61.11-58.11,101.19-37.07c40.07,21.04,77.14,35.07,87.16,39.07,10.02,4.01,33.06-10.02,19.04-21.04-14.03-11.02-75.14-64.12-136.25-116.22-42.08-40.07-99.19-41.08-252.47-128.24-51.1-45.08-44.08-63.12-36.07-94.18-9.02-27.05-12.96-32.06-23.01-70.13-10.05-38.07-13.06-89.17-24.08-194.36q-1-23.04-12.02-31.06c-3.51-13.02,9.02-170.82,12.02-205.38,2.57-29.58,7.71-41.18,18.88-41.72,3.33-.16,6.07,2.61,5.94,5.94Z"/>
          <path class="st18" d="M2127.75,2822.49c-1.06-4.93-2.63-12.8-4.61-23.08-10.64-9.98-20.68-18.28-27.83-23.93,6.86,37.03-1.88,107.09,24.42,106.12,35.07-1,16.03-40.08,8.01-59.11Z"/>
          <path class="st24" d="M2005.63,2468.77c-.7,15.3,2.34,28.45,5.9,44.13,5.01,22.04,11.02,135.25,38.07,167.31,23.65,24.31,32.22,40.86,37.58,59.55h0s-17.55-83.6-36.58-156.73c-18.91-72.67-44.65-113.74-44.98-114.27Z"/>
          <path class="st24" d="M1969.13,2302.34c42.14-18.64,28.64-243.61,21.53-333.12-17.71,60.98-38.96,135.35-31.22,205.05,8.01,72.13,19.04,100.19,14.03,113.21-1.84,4.79-3.82,9.05-4.33,14.85Z"/>
          <path class="st23" d="M2458.37,2060.06c18.03,11.02,24.04,2,34.06-7.01,10.02-9.02,21.04-42.08-6.01-78.15-27.05-36.07-50.09-87.16-89.17-129.24-201.38-243.46-338.63-257.48-418.78-306.57-7.75-5.35-15.16-11.2-22.26-17.47-49.45-21.23-105.98-46.82-137.76-65.65.86,2.46,1.77,5.09,2.73,7.98-8.01,31.06-15.03,49.09,36.07,94.18,153.29,87.16,210.39,88.16,252.47,128.24,61.11,52.1,122.23,105.2,136.25,116.22,14.03,11.02-9.02,25.05-19.04,21.04-10.02-4.01-47.09-18.03-87.16-39.07-40.08-21.04-74.14-25.05-101.19,37.07-27.05,62.12-21.04,51.1-20.04,73.14.69,15.07.9,20.77-1.6,22.55v142.76s-12.56,68.67,32.12,75.74c10.83-151.95,48.52-268.19,67.66-278.12,39.07-14.03,96.18,35.07,122.23,47.09,26.05,12.02,42.08,1,63.12,32.06,38.07,49.09,88.16,96.18,110.21,103.19,22.04,7.01,28.05,9.02,46.09,20.04Z"/>
          <path class="st2" d="M2390.78,2027.59c30.28-122.45-95.82-192.29-141.57-213.23-3.76,6.85-15.77,11.87-22.28,9.26-10.02-4.01-47.09-18.03-87.16-39.07-40.08-21.04-74.14-25.05-101.19,37.07-27.05,62.12-21.04,51.1-20.04,73.14.69,15.07.9,20.77-1.6,22.55v142.76s-12.56,68.67,32.12,75.74c10.83-151.95,48.52-268.19,67.66-278.12,39.07-14.03,96.18,35.07,122.23,47.09,26.05,12.02,42.08,1,63.12,32.06,28.43,36.66,63.55,72.19,88.7,90.76Z"/>
          <path class="st14" d="M2194.88,1847.66c-69.13-30.06-78.15,10.02-78.15,10.02,39.07-14.03,96.18,35.07,122.23,47.09,21.08,9.73,35.59,4.38,51.51,18.43,8.01-20.67-37.4-50.23-95.6-75.54Z"/>
          <path class="st14" d="M2421.3,2000.95c-13.02-18.03-56.1-61.11-72.13-70.13-16.03-9.02-58.69-7.62-58.69-7.62h0c3.76,3.32,7.59,7.7,11.6,13.63,4.11,5.3,8.37,10.57,12.71,15.78,1.36,1.64,2.73,3.26,4.11,4.88,1.86,2.18,3.72,4.35,5.6,6.49,1.96,2.24,3.94,4.45,5.92,6.65,1.91,2.12,3.83,4.23,5.75,6.3,1.97,2.12,3.94,4.21,5.91,6.27,1.94,2.03,3.87,4.04,5.8,6,1.94,1.98,3.87,3.9,5.79,5.8,1.93,1.91,3.85,3.79,5.76,5.61,1.27,1.21,2.53,2.41,3.78,3.58,16.28,15.26,31.24,27.05,42.19,32.82,2.53,1.33,4.84,2.34,6.91,3,7.58,2.41,13.26,4.23,18.19,6.03.45.16.89.33,1.33.49.87.33,1.72.65,2.56.99.48.19.95.38,1.41.57-.09-17.79-6.01-35.43-14.47-47.15Z"/>
          <path class="st5" d="M2464.18,1941.56c-20.71-14.7-55.57-40.42-69.93-56.82-21.04-24.04-103.19-99.19-180.34-164.31-77.14-65.12-120.92-47.56-120.92-47.56,5.92,4.05,11.44,8.47,16.73,13.5,61.11,52.1,122.23,105.2,136.25,116.22,7.11,5.59,4.69,11.95-.74,16.34,19.9,17.26,60.2,53.05,87.9,83.18,38.07,41.41,30.06,102.11,30.06,102.11h0c20.04,18.79,38.07,32.31,49.09,35.82,22.04,7.01,28.05,9.02,46.09,20.04,18.03,11.02,24.04,2,34.06-7.01,10.02-9.02,21.04-42.08-6.01-78.15-7.58-10.11-14.85-21.4-22.25-33.35Z"/>
          <path class="st3" d="M2245.98,1802.58c11.55,9.07-2.03,20.17-12.78,21.58,43.83,47.88,130.5,104.65,110.96,64.08-19.54-40.58-98.18-85.66-98.18-85.66Z"/>
          <path class="st12" d="M1978.48,1539.09c-191.71-132.5-181.56-559.41-179.56-611.86.13-3.33-2.61-6.1-5.94-5.94-11.16.53-16.3,12.14-18.88,41.72-3.01,34.56-15.53,192.36-12.02,205.38q11.02,8.01,12.02,31.06c11.02,105.2,14.03,156.29,24.08,194.36,10.05,38.07,13.99,43.08,23.01,70.13,0,0,54.1,105.7,178.83,128.99,63.87,7.51,36.54-25.13,36.54-25.13h0c-21.92-9.66-41.26-18.42-58.08-28.72Z"/>
        </g>
      </g>
      <path class="st26" d="M1938.08,1297.34c-2.33,42.15-.76,170.95,104.81,177.4,3.45.21,6.92-.11,10.27-.93,20.84-5.12,53.86-6.85,68.57-3.35,15.78,3.76,77.39,9.02,108.95-63.87s47.47-140.89-29.35-188.19c-2.57-1.58-5.34-2.84-8.22-3.74-31.93-9.92-46.7-35.41-69.13-46.27-23.29-11.27-60.86-16.53-131.5,56.36-24.28,27.46-37.81,42.49-45.16,50.55-5.54,6.07-8.8,13.84-9.26,22.04Z"/>
      <path class="st19" d="M2201.35,1218.39c-2.57-1.58-5.34-2.84-8.22-3.74-1.28-.4-2.53-.83-3.76-1.28-2.91,12.99-11.99,26.02-29.89,38.44-96.94,67.25-213.63,27.55-214.99,27.08-3.79,5.41-6.05,11.78-6.41,18.44-2.33,42.15-.76,170.95,104.81,177.4,3.45.21,6.92-.11,10.27-.93,20.84-5.12,53.86-6.85,68.57-3.35,15.78,3.76,77.39,9.02,108.95-63.87,30.97-71.53,47.47-140.89-29.35-188.19Z"/>
      <path class="st0" d="M2081.92,1447.16c-21.04-6.76-59.36-47.34-86.41-91.67-17.46-28.61-42.41-37.49-57.92-40.2-.06,52.58,12.04,153.75,105.31,159.45,3.45.21,6.92-.11,10.27-.93,14.81-3.64,35.75-5.56,51.92-5.12,2.56-11.54-6.1-16.04-23.17-21.52Z"/>
      <path class="st25" d="M2214.92,1340.46c-99.19-24.04-126.24-.75-134.5,46.59-5.39,30.85-3.75,63.59-1.96,82.68,16.59-1.62,33.77-1.54,43.29.73,15.78,3.76,77.39,9.02,108.95-63.87,8.7-20.09,16.25-40,20.92-59.31-9.19-1.54-21.2-3.72-36.7-6.82Z"/>
      <path class="st16" d="M2201.35,1218.39c-2.57-1.58-5.34-2.84-8.22-3.74-1.28-.4-2.53-.83-3.76-1.28-2.91,12.99-11.99,26.02-29.89,38.44-7.96,5.52-16.05,10.3-24.19,14.46-1.91,12.43,8.38,22.62,16.51,36.61,11.22,19.32,64.31,59.32,99.68,44.95,12.15-49.66,5.33-95.3-50.13-129.45Z"/>
    </g>
  </g>
  <path class="st22" d="M425.07,3309.9s683.78-139.76,1163.17-73.64c148.78,25.55,173.34,48.09,180.6,90.17,7.25,42.08-19.3,36.07,85.65,42.08,104.95,6.01,334.88,0,334.88,0,0,0,42.08,4.51,37.57-22.54-4.51-27.05-36.07-112.17,396.74-127.47,147.28-7.78,507.95-1.77,918.22,88.4,70.63,21.04,115.72-25.55,114.21-69.13-1.5-43.58-34.56-48.09-70.63-60.11-36.07-12.02-79.65-13.53-79.65-13.53,0,0,25.55-90.17-226.92-223.92-42.08-79.65-28.55-72.13-84.16-99.19-25.55-55.6-43.58-109.71-241.95-136.76-198.37-27.05-545.78,49.59-857.48,317.09-35.19,31.56-36.41,70.63-107.18,49.59-70.77-21.04-88.81-70.63-138.4-108.2-49.59-37.57-241.95-156.29-341.14-195.37-99.19-39.07-314.09-85.66-509.45-57.11-123.23,21.04-165.31,76.64-184.85,108.2-19.54,31.56-34.56,45.08-43.58,54.1-9.02,9.02-27.05,45.08-34.56,82.65-58.61,15.03-174.33,72.13-225.42,195.37-18.03,15.03-48.09,16.53-94.68,22.54-46.59,6.01-96.18,33.06-66.12,105.2,30.06,52.6,75.14,31.56,75.14,31.56Z"/>
  <path class="st8" d="M510.73,3150.6s513.96-78.15,852.09-60.11c178.83,6.01,346.95,25.55,472.54,75.14h3.1s48.09,21.04,50.34-31.56c18.79-28.55,6.76-39.07,6.76-39.07,0,0,18.79-13.53-9.02-33.81-27.8-20.29-213.65-123.48-327.86-173.57-68.13-31.06-246.46-127.24-567.06-118.22-59.11-2-95.18,16.03-126.24,59.11-31.06,43.08-59.11,71.13-64.12,77.14-5.01,6.01-19.04,27.05-10.02,37.07l-55.1,12.52c-58.61,15.03-174.33,72.13-225.42,195.37Z"/>
  <path class="st30" d="M1898.34,3099.7l-2.77-4.71s-88.42-66.12-422.04-152.28c-333.62-86.16-682.28,0-682.28,0l-55.1,12.52c-58.61,15.03-174.33,72.13-225.42,195.37,0,0,22.93-3.49,62.3-8.82,17-100.58,115.54-114.48,173.14-121.93,371.69-87.16,766.43,5.01,883.65,38.07,117.22,33.06,257.96,85.64,257.96,85.64h0c.52-2.86.88-6.01,1.03-9.49,11.83-17.99,11.44-28.81,9.53-34.37Z"/>
  <path class="st8" d="M2095.32,3230.25h-172.95s-28.05-1-11.02-46.09c17.03-45.08,50.66-90.17,103.98-75.14,53.32,15.03,67.59,56.1,79.99,121.23Z"/>
  <path class="st8" d="M3190.74,2926.68c5.01-34.06,0-23.04-42.08-90.17-105.2-125.23-292.55-77.14-504.94-19.04-212.4,58.11-474.89,210.03-474.89,210.03-33.37,18.67-28.68,50.46-28.68,50.46,0,0-4.38-13.02-22.42-2-34.07,15.03-16.03,49.09-10.02,62.12-1,20.04-7.01,41.08,32.43,31.71,39.45-9.37,68.75-20.69,78.77-32.71,10.02-12.02,55.1-29.05,71.13-24.04,16.03,5.01,65.12-5.01,89.17-6.96,24.04-1.95,109.2-20.1,259.49-24.1,204.38,1,224.42,8.01,377.71,19.04,304.57,13.02,382.72,52.1,428.8,56.1,33.7,2.93,52.85,5.44,60.72,6.58,1.49-6.84,15.37-95.07-227.03-223.49,0,0-50.09,4.51-88.16-13.53Z"/>
  <path class="st20" d="M3278.91,2940.21s-50.09,4.51-88.16-13.53c0,0-19.04,11.02-75.14,0-56.1-11.02-324.65-81.33-777.45,72.13-120.22,37.07-198,79.15-198,79.15h0c-.02-.07-4.43-12.99-22.42-2-34.07,15.03-16.03,49.09-10.02,62.12h0s14.03,3,58.11-14.03c36.96-14.28,58.41-11.64,54.93,11.13,10.57-9.79,40.72-21.81,59.41-22.95h0s-12.16-35.27,73-50.29c79.15-18.03,321.6-66.12,537-76.14,215.4-10.02,460.86,20.04,539.01,135.25,8.14,13.2,15.38,25.37,21.82,36.58,30.12,2.71,47.52,5,54.92,6.07,1.49-6.84,15.37-95.07-227.03-223.49Z"/>
</svg>